<mxfile host="app.diagrams.net" modified="2024-04-29T13:14:03.730Z" agent="Mozilla/5.0 (Windows NT 10.0; Win64; x64) AppleWebKit/537.36 (KHTML, like Gecko) Chrome/123.0.0.0 Safari/537.36" version="24.3.0" etag="4Ndlr6ml2S2eKvN_6EWu" type="github">
  <diagram name="PÃ¡gina-1" id="F-Ougrs7IFMCDqjF7XTs">
    <mxGraphModel>
      <root>
        <mxCell id="0" />
        <mxCell id="1" parent="0" />
      </root>
    </mxGraphModel>
  </diagram>
</mxfile>
